<svg width="52" height="57" viewBox="0 0 52 57" fill="none" xmlns="http://www.w3.org/2000/svg">
<path d="M33 36C33 37.1046 32.1046 38 31 38C29.8954 38 29 37.1046 29 36C29 34.8954 29.8954 34 31 34C32.1046 34 33 34.8954 33 36Z" fill="#3068BB"/>
<path d="M41 44C41 45.1046 40.1046 46 39 46C37.8954 46 37 45.1046 37 44C37 42.8954 37.8954 42 39 42C40.1046 42 41 42.8954 41 44Z" fill="#3068BB"/>
<path d="M31 44L39 36M20 55H8.99449C4.43143 55 1.08827 50.7043 2.20885 46.281L7.97106 23.5354C8.87026 19.9859 12.0645 17.5 15.7261 17.5H23.9689C26.4616 17.5 28.7633 18.8357 30 21M24 14C24 12.3431 22.6569 11 21 11H20C18.3432 11 17 12.3431 17 14M50 39.5C50 48.0604 43.0604 55 34.5 55C25.9396 55 19 48.0604 19 39.5C19 30.9396 25.9396 24 34.5 24C43.0604 24 50 30.9396 50 39.5ZM20.5 9.5L16 2H25L20.5 9.5Z" stroke="#3068BB" stroke-width="3"/>
</svg>
